<?xml version="1.0" encoding="utf-8"?>
<!-- Generator: Adobe Illustrator 22.1.0, SVG Export Plug-In . SVG Version: 6.00 Build 0)  -->
<svg version="1.1" id="Layer_1" xmlns="http://www.w3.org/2000/svg" xmlns:xlink="http://www.w3.org/1999/xlink" x="0px" y="0px"
	 viewBox="0 0 765 760" style="enable-background:new 0 0 765 760;" xml:space="preserve">
<style type="text/css">
	.st0{fill-opacity:0;stroke:#2DABFE;stroke-width:15;stroke-dasharray:44;}
	.st1{fill-opacity:0;stroke:#2DABFE;stroke-width:20;stroke-dasharray:16;}
	.st2{fill-opacity:0;stroke:#2DABFE;stroke-width:15;}
	.st3{fill:#2DABFE;}
</style>
<title>atom</title>
<desc>Created with Sketch.</desc>
<g id="Icon">
	<g id="Artboard-Copy" transform="translate(-133.000000, -133.000000)">
		<g id="atom" transform="translate(87.000000, 87.000000)">
			<g id="Group" transform="translate(15.863990, 14.212435)">
				<g id="Path" transform="translate(203.703256, 40.028389)">
					<g transform="translate(0.109788, 0.145072)">
						<path class="st0" d="M208.4,0C66.2,0,0,229.9,0,372s66.2,372,208.4,372s208.4-229.9,208.4-372S350.6,0,208.4,0z"/>
					</g>
				</g>
				
					<g id="Path_1_" transform="translate(412.598774, 411.673890) rotate(-90.000000) translate(-412.598774, -411.673890) translate(203.598774, 39.173890)">
					<g transform="translate(0.109788, 0.145072)">
						<path class="st1" d="M208.4,0C66.2,0,0,229.9,0,372s66.2,372,208.4,372s208.4-229.9,208.4-372S350.6,0,208.4,0z"/>
					</g>
				</g>
				
					<g id="Path_2_" transform="translate(411.618765, 412.227168) rotate(135.000000) translate(-411.618765, -412.227168) translate(202.618765, 39.727168)">
					<g transform="translate(0.109788, 0.145072)">
						<path class="st2" d="M208.4,0C66.2,0,0,229.9,0,372c0,142.1,66.2,372,208.4,372s208.4-229.9,208.4-372S350.6,0,208.4,0z"/>
					</g>
				</g>
				
					<g id="Path_3_" transform="translate(412.149563, 411.549120) rotate(-135.000000) translate(-412.149563, -411.549120) translate(203.149563, 39.049120)">
					<g transform="translate(0.109788, 0.145072)">
						<path class="st2" d="M208.4,0C66.2,0,0,229.9,0,372c0,142.1,66.2,372,208.4,372s208.4-229.9,208.4-372S350.6,0,208.4,0z"/>
					</g>
				</g>
				
					<g id="Path_4_" transform="translate(409.000000, 411.000000) rotate(30.802000) translate(-409.000000, -411.000000) translate(269.000000, 271.000000)">
					<g transform="translate(0.032853, 0.092144)">
						<path class="st3" d="M139.5,0.5c76.9,0,139.4,62.2,139.4,138.9c0,76.6-62.5,138.9-139.4,138.9S0.1,216,0.1,139.4
							C0.1,62.7,62.5,0.5,139.5,0.5z"/>
					</g>
				</g>
			</g>
		</g>
	</g>
</g>
</svg>
